<svg xmlns="http://www.w3.org/2000/svg" id="Capa_1" enable-background="new 0 0 512 512" height="512" viewBox="0 0 512 512" width="512"><path d="m386.521 204.501c2.265-6.447 3.512-13.37 3.512-20.583 0-34.336-27.935-62.27-62.271-62.27-24.227 0-46.112 14.233-56.285 35.625-4.98-1.143-10.155-1.766-15.477-1.766-5.327 0-10.508.625-15.493 1.77-10.154-21.394-32.042-35.629-56.298-35.629-34.319 0-62.24 27.934-62.24 62.27 0 7.204 1.243 14.121 3.503 20.562-17.603 16.32-27.559 38.922-27.559 63.125v29.612c0 18.761 15.25 34.025 33.995 34.025h27.614v21.883c0 20.526 16.686 37.225 37.196 37.225h13.234c5.57 0 10.085-4.515 10.085-10.085s-4.515-10.085-10.085-10.085h-13.234c-9.389 0-17.026-7.651-17.026-17.055v-31.968-1.57c0-19.93 7.67-38.663 21.353-52.837 12.663 16.52 32.581 27.201 54.956 27.201s42.293-10.68 54.956-27.2c13.683 14.174 21.354 32.907 21.354 52.836v1.57 31.968c0 9.404-7.651 17.055-17.056 17.055h-13.119c-5.569 0-10.085 4.515-10.085 10.085s4.516 10.085 10.085 10.085h13.119c20.526 0 37.225-16.699 37.225-37.225v-21.883h27.584c18.762 0 34.024-15.264 34.024-34.025v-29.612c-.001-24.181-9.959-46.775-27.567-63.104zm-226.625 106.558c-.001.005-.002.009-.003.014h-27.985c-7.624 0-13.826-6.215-13.826-13.855v-29.612c0-16.832 6.305-32.654 17.573-44.793 11.417 14.236 28.934 23.376 48.554 23.376 1.976 0 3.943-.097 5.895-.282.273.849.553 1.697.858 2.531-17.965 16.399-28.958 38.563-31.066 62.621zm26.882-86.329c0 .404.024.803.031 1.205-.862.053-1.729.085-2.6.085-23.198 0-42.07-18.886-42.07-42.1s18.872-42.1 42.07-42.1c15.932 0 30.348 9.078 37.45 22.846-20.818 11.947-34.881 34.387-34.881 60.064zm69.222 49.051c-27.048 0-49.052-22.004-49.052-49.052s22.004-49.052 49.052-49.052 49.054 22.004 49.054 49.052-22.006 49.052-49.054 49.052zm34.327-109.125c7.12-13.765 21.528-22.838 37.435-22.838 23.214 0 42.102 18.886 42.102 42.1s-18.888 42.1-42.102 42.1c-.86 0-1.718-.032-2.57-.083.008-.403.031-.801.031-1.206 0-25.682-14.071-48.125-34.896-60.073zm103.591 132.562c0 7.64-6.216 13.855-13.855 13.855h-27.957c-2.104-24.063-13.098-46.232-31.068-62.634.306-.834.585-1.682.859-2.531 1.941.185 3.898.281 5.865.281 19.624 0 37.145-9.134 48.568-23.364 11.277 12.145 17.588 27.964 17.588 44.781z" style="fill:#3c92ca;"/><path d="m256.029 370.181h-.029c-5.57 0-10.07 4.515-10.07 10.085s4.529 10.085 10.099 10.085 10.085-4.515 10.085-10.085c-.001-5.57-4.515-10.085-10.085-10.085z" style="fill:#3c92ca;"/><path d="m475.996 201.118h-15.896c-4.754-17.785-11.79-34.79-20.989-50.729l11.35-11.351c14.009-14.009 14.013-36.831-.004-50.889l-26.757-26.727c-6.773-6.773-15.804-10.503-25.428-10.503-9.626 0-18.656 3.73-25.422 10.497l-11.38 11.36c-16.148-9.322-33.348-16.414-51.317-21.161v-15.641c0-19.836-16.136-35.974-35.971-35.974h-37.816c-19.836 0-35.974 16.138-35.974 35.974v16.084c-17.691 4.819-34.576 11.891-50.376 21.097l-11.209-11.21c-6.787-6.786-15.826-10.523-25.453-10.523-9.633 0-18.668 3.741-25.427 10.519l-26.767 26.737c-14.029 14.028-14.029 36.855 0 50.885l11.488 11.487c-9.037 15.78-15.945 32.563-20.61 50.068h-16.063c-19.837 0-35.975 16.138-35.975 35.974v37.815c0 19.836 16.138 35.974 35.975 35.974h16.17c4.746 17.653 11.747 34.531 20.886 50.354l-11.348 11.348c-14.009 14.009-14.014 36.831 0 50.885l26.732 26.732c6.772 6.773 15.807 10.503 25.441 10.503s18.67-3.729 25.443-10.503l11.352-11.351c15.885 9.169 32.801 16.182 50.466 20.922v16.226c0 19.852 16.138 36.003 35.974 36.003h37.814c19.836 0 35.974-16.151 35.974-36.003v-16.193c17.733-4.751 34.692-11.775 50.591-20.956l11.372 11.353c6.772 6.772 15.803 10.501 25.429 10.501 9.624 0 18.654-3.729 25.425-10.499l26.773-26.746c14.003-14.044 13.998-36.866-.01-50.874l-11.353-11.354c9.152-15.866 16.155-32.743 20.892-50.349h15.996c19.853 0 36.004-16.138 36.004-35.974v-37.815c.002-19.835-16.149-35.973-36.002-35.973zm15.835 73.789c0 8.714-7.104 15.804-15.835 15.804h-23.88c-4.706 0-8.785 3.254-9.832 7.842-4.756 20.841-12.972 40.646-24.422 58.865-2.503 3.984-1.919 9.169 1.407 12.497l16.929 16.93c6.156 6.156 6.151 16.192.004 22.357l-26.763 26.736c-2.964 2.963-6.93 4.595-11.167 4.595-4.238 0-8.203-1.632-11.173-4.6l-16.957-16.93c-3.332-3.326-8.52-3.905-12.499-1.398-18.214 11.469-38.093 19.703-59.082 24.473-4.592 1.044-7.85 5.126-7.85 9.834v24.086c0 8.731-7.09 15.833-15.805 15.833h-37.814c-8.715 0-15.805-7.103-15.805-15.833v-24.114c0-4.708-3.257-8.789-7.847-9.834-20.909-4.758-40.749-12.982-58.971-24.446-1.655-1.042-3.517-1.549-5.367-1.549-2.606 0-5.188 1.007-7.134 2.954l-16.93 16.93c-2.964 2.963-6.935 4.595-11.182 4.595-4.246 0-8.217-1.632-11.18-4.594l-26.722-26.722c-6.162-6.18-6.166-16.215-.01-22.372l16.929-16.93c3.33-3.33 3.912-8.522 1.401-12.506-11.428-18.14-19.642-37.942-24.415-58.856-1.047-4.587-5.127-7.841-9.832-7.841h-24.052c-8.715 0-15.805-7.089-15.805-15.804v-37.815c0-8.714 7.09-15.804 15.805-15.804h23.968c4.715 0 8.8-3.268 9.838-7.867 4.677-20.748 12.79-40.466 24.112-58.604 2.485-3.982 1.895-9.152-1.424-12.471l-17.046-17.045c-6.165-6.165-6.165-16.196-.004-22.357l26.777-26.747c2.962-2.97 6.924-4.606 11.158-4.606 4.239 0 8.214 1.64 11.19 4.616l16.813 16.813c3.34 3.341 8.554 3.915 12.541 1.38 18.093-11.501 37.896-19.799 58.858-24.663 4.57-1.06 7.806-5.132 7.806-9.823v-23.942c0-8.715 7.089-15.804 15.804-15.804h37.816c8.713 0 15.803 7.089 15.803 15.804v23.562c0 4.722 3.277 8.813 7.886 9.842 21.198 4.734 41.311 13.025 59.777 24.641 3.981 2.506 9.166 1.924 12.494-1.399l16.965-16.936c2.963-2.963 6.928-4.595 11.166-4.595 4.236 0 8.203 1.632 11.17 4.599l26.746 26.719c6.162 6.179 6.166 16.215.01 22.371l-16.929 16.93c-3.328 3.329-3.91 8.518-1.403 12.501 11.486 18.254 19.73 38.181 24.502 59.225 1.043 4.594 5.125 7.855 9.836 7.855h23.792c8.731 0 15.835 7.09 15.835 15.804v37.814z" style="fill:#2c2f33;"/></svg>